<svg width="64" height="64" viewBox="0 0 64 64" fill="none" xmlns="http://www.w3.org/2000/svg">
<g clip-path="url(#clip0_132_38)">
<path fill-rule="evenodd" clip-rule="evenodd" d="M63.5546 30.7882C63.2678 24.7353 61.2142 18.8954 57.6436 13.9787C54.073 9.06204 49.1392 5.28033 43.4421 3.09347C37.745 0.906611 31.5301 0.40881 25.5531 1.6606C19.5761 2.91239 14.0945 5.85985 9.77488 10.1446C5.45526 14.4293 2.48371 19.8666 1.22157 25.7955C-0.0405628 31.7243 0.461091 37.8892 2.66553 43.5404C4.86998 49.1917 8.68224 54.0859 13.6387 57.6279C18.5952 61.1699 24.4825 63.2071 30.5845 63.4917C34.9655 63.6831 39.3387 62.9681 43.426 61.3924C47.5134 59.8166 51.2255 57.4144 54.3264 54.3386C57.4273 51.2628 59.849 47.5807 61.4378 43.5263C63.0265 39.4718 63.7473 35.1339 63.5546 30.7882ZM13.2053 26.7677C12.9743 26.6128 12.8013 26.3866 12.713 26.1242C12.6248 25.8619 12.6261 25.5779 12.7169 25.3164C13.9754 21.8574 16.1537 18.8004 19.0211 16.4695C21.8885 14.1385 25.3382 12.6204 29.0046 12.0759C32.671 11.5315 36.4176 11.9809 39.8474 13.3767C43.2773 14.7725 46.2626 17.0627 48.4871 20.0045C49.9882 21.9899 47.9537 24.0368 45.1065 26.1592C42.3845 28.1903 39.6794 29.8431 39.6794 29.8431C38.8713 30.2591 37.9632 30.4459 37.0549 30.3831C36.1467 30.3202 35.2735 30.01 34.5315 29.4868L30.1862 26.4233C29.444 25.9007 28.571 25.591 27.6631 25.5283C26.7551 25.4656 25.8473 25.6523 25.0393 26.0679L20.3057 28.503C19.4976 28.918 18.5899 29.1042 17.6821 29.0411C16.7744 28.9781 15.9017 28.6683 15.1598 28.1456L13.2133 26.7747L13.2053 26.7677ZM51.4133 39.1944C50.1546 42.6535 47.9761 45.7104 45.1086 48.0414C42.2411 50.3724 38.7914 51.8905 35.1248 52.4351C31.4583 52.9796 27.7116 52.5303 24.2816 51.1346C20.8516 49.739 17.866 47.449 15.6411 44.5073C14.14 42.5219 16.1755 40.474 19.0217 38.3526C21.7438 36.3195 24.4498 34.6667 24.4498 34.6667C25.258 34.2512 26.166 34.0648 27.0741 34.128C27.9821 34.1912 28.855 34.5016 29.5967 35.025L33.943 38.0875C34.6852 38.6101 35.558 38.92 36.4659 38.983C37.3738 39.046 38.2817 38.8599 39.09 38.4449L43.8246 36.0118C44.6325 35.5965 45.5402 35.4101 46.448 35.473C47.3557 35.5358 48.2285 35.8456 48.9705 36.3682L50.9149 37.7391C50.9181 37.7414 50.9214 37.7434 50.925 37.745C51.1559 37.9003 51.3288 38.1267 51.4171 38.3892C51.5053 38.6517 51.504 38.9357 51.4133 39.1974V39.1944Z" fill="#55C2D8"/>
</g>
<defs>
<clipPath id="clip0_132_38">
<rect width="63.0479" height="62.5401" fill="white" transform="translate(0.540649 0.985352)"/>
</clipPath>
</defs>
</svg>
